
nColumns=19
nRows=95
DataType=double
version=3
OpenSimVersion=4.4-2022-10-11-798caa840
endheader
time	ground_force_calcn_r_vx	ground_force_calcn_r_vy	ground_force_calcn_r_vz	ground_force_calcn_r_px	ground_force_calcn_r_py	ground_force_calcn_r_pz	ground_force_calcn_r_mx	ground_force_calcn_r_my	ground_force_calcn_r_mz	ground_force_calcn_l_vx	ground_force_calcn_l_vy	ground_force_calcn_l_vz	ground_force_calcn_l_px	ground_force_calcn_l_py	ground_force_calcn_l_pz	ground_force_calcn_l_mx	ground_force_calcn_l_my	ground_force_calcn_l_mz
1.64	-81.7026	92.1824	-24.2999	-0.14506	0	-0.375323	-0.258205	0.291325	-0.0767954	-39.4899	31.4327	11.0609	-0.109393	0	-0.799928	0.306696	-0.24412	-0.0859037
1.65	-363.51	481.706	-108.712	-0.168784	0	-0.375309	-0.467672	0.619736	-0.139863	-306.469	427.243	69.35599999999999	-0.161145	0	-0.82955	0.107581	-0.149977	-0.0243463
1.66	-300.802	778.177	-152.984	-0.22247	0	-0.386342	-0.712518	1.84329	-0.362377	-359.119	747.718	119.443	-0.174553	0	-0.831815	0.794013	-1.6532	-0.264089
1.67	-14.6351	1470.11	-145.881	-0.289996	0	-0.405983	0.0234553	-2.3561	0.233799	-97.5771	769.873	163.878	-0.209106	0	-0.833078	0.522174	-4.1199	-0.876976
1.68	72.0166	1565.56	-66.9585	-0.302032	0	-0.413598	-0.224261	-4.8752	0.20851	-0.365251	1054.11	184.058	-0.256745	0	-0.822492	0.000168307	-0.485731	-0.0848131
1.69	-162.026	997.08	-79.8039	-0.278868	0	-0.409748	0.777077	-4.78201	0.382741	13.8563	1117.78	145.271	-0.27271	0	-0.814646	0.0404527	3.2633	0.42411
1.7	-324.05	642.9589999999999	-99.2281	-0.23783	0	-0.401456	1.54181	-3.05916	0.472122	-154.995	825.292	116.635	-0.24964	0	-0.815003	-0.82964	4.41754	0.624312
1.71	-306.162	521.871	-78.1996	-0.221186	0	-0.400611	1.67952	-2.86283	0.428981	-248.669	616.332	91.62269999999999	-0.215169	0	-0.817318	-1.45444	3.60487	0.535893
1.72	-219.921	563.1849999999999	-71.6845	-0.238141	0	-0.406028	1.20972	-3.09792	0.394315	-199.553	539.5650000000001	72.95480000000001	-0.202677	0	-0.816967	-1.4509	3.92305	0.530437
1.73	-147.319	672.159	-84.099	-0.256968	0	-0.410619	0.694309	-3.16785	0.396354	-146.199	559.1319999999999	81.72920000000001	-0.205716	0	-0.816397	-1.06579	4.07608	0.595807
1.74	-98.9196	770.21	-87.65349999999999	-0.268058	0	-0.414082	0.447829	-3.48689	0.396825	-135.152	613.526	101.976	-0.208851	0	-0.8166949999999999	-0.82458	3.74321	0.622167
1.75	-56.5333	845.394	-88.0759	-0.275429	0	-0.41643	0.289061	-4.3226	0.450342	-130.47	658.064	116.816	-0.211002	0	-0.816724	-0.705196	3.55686	0.631392
1.76	-32.3157	860.078	-85.7038	-0.278277	0	-0.417637	0.196975	-5.24244	0.522392	-104.203	700.229	124.179	-0.216455	0	-0.815961	-0.591439	3.97438	0.704816
1.77	-36.1211	821.004	-82.28440000000001	-0.276262	0	-0.417631	0.261079	-5.93411	0.594741	-68.02509999999999	748.374	126.447	-0.223872	0	-0.814703	-0.43035	4.73447	0.799947
1.78	-47.2276	776.413	-83.70699999999999	-0.271899	0	-0.41666	0.383854	-6.31049	0.680349	-43.7262	765.013	131.454	-0.227262	0	-0.814478	-0.276298	4.83398	0.830633
1.79	-50.5847	744.682	-87.3977	-0.266633	0	-0.415302	0.4331	-6.37588	0.748288	-35.2361	739.557	136.845	-0.225078	0	-0.81538	-0.202622	4.25275	0.7869119999999999
1.8	-46.9918	729.867	-88.71639999999999	-0.26109	0	-0.414072	0.411126	-6.38553	0.77617	-34.67	704.371	139.229	-0.219875	0	-0.816564	-0.173903	3.5331	0.698367
1.81	-37.8935	728.502	-85.4803	-0.255607	0	-0.413105	0.335804	-6.45583	0.757509	-34.1614	682.444	137.675	-0.214498	0	-0.817351	-0.150273	3.002	0.605618
1.82	-29.4143	731.42	-83.3115	-0.24937	0	-0.411897	0.260826	-6.48574	0.73875	-32.9263	676.091	135.718	-0.209656	0	-0.817878	-0.12298	2.5252	0.506907
1.83	-24.9548	738.727	-84.464	-0.242502	0	-0.410382	0.221563	-6.55885	0.74992	-32.3911	673.254	134.981	-0.205164	0	-0.8182469999999999	-0.0936876	1.94731	0.390417
1.84	-24.7659	744.824	-85.5277	-0.234993	0	-0.408888	0.223576	-6.72395	0.772107	-32.366	667.396	133.707	-0.200801	0	-0.818487	-0.06591619999999999	1.35921	0.272306
1.85	-30.3876	744.0359999999999	-87.3066	-0.226337	0	-0.406987	0.277317	-6.79005	0.796758	-31.3587	659.6950000000001	131.99	-0.196509	0	-0.818721	-0.0373377	0.785475	0.157156
1.86	-40.4832	737.755	-93.1383	-0.216835	0	-0.404554	0.354393	-6.45835	0.815339	-29.4343	650.449	130.639	-0.192115	0	-0.818917	-0.010146	0.22421	0.0450311
1.87	-50.186	731.525	-99.2889	-0.207758	0	-0.402479	0.409131	-5.96361	0.809433	-29.6717	641.192	129.841	-0.187873	0	-0.819126	0.0133918	-0.289391	-0.0586017
1.88	-58.063	731.431	-102.074	-0.200411	0	-0.401163	0.45734	-5.7612	0.803998	-30.9877	631.465	129.096	-0.184082	0	-0.81929	0.035009	-0.71341	-0.145849
1.89	-62.384	733.798	-101.401	-0.194804	0	-0.40057	0.505794	-5.94945	0.822137	-30.6547	618.774	128.466	-0.181049	0	-0.819345	0.0539417	-1.08883	-0.226055
1.9	-62.9731	735.405	-100.331	-0.190494	0	-0.40036	0.536733	-6.26802	0.855141	-29.274	602.645	128.593	-0.178453	0	-0.819394	0.07583380000000001	-1.56114	-0.333118
1.91	-61.0445	734.585	-101.424	-0.187109	0	-0.400219	0.52502	-6.31788	0.8723109999999999	-28.7714	585.145	129.792	-0.176229	0	-0.819286	0.103011	-2.09501	-0.464697
1.92	-57.1004	728.3440000000001	-104.771	-0.18429	0	-0.400145	0.471479	-6.01395	0.865099	-29.8151	568.513	131.881	-0.174204	0	-0.819107	0.135167	-2.57736	-0.5978830000000001
1.93	-53.5011	720.074	-109.32	-0.181806	0	-0.400006	0.415433	-5.59133	0.8488599999999999	-30.5224	553.216	133.892	-0.172462	0	-0.818891	0.163194	-2.95788	-0.715879
1.94	-53.2565	714.683	-113.145	-0.179686	0	-0.399863	0.39823	-5.3441	0.84605	-30.3171	541.044	135.716	-0.171396	0	-0.818585	0.178685	-3.18884	-0.799892
1.95	-54.4138	712.141	-113.738	-0.178092	0	-0.399943	0.40755	-5.33382	0.851878	-29.9141	533.628	138.193	-0.170747	0	-0.818221	0.186222	-3.32195	-0.860282
1.96	-54.2681	711.624	-111.746	-0.176903	0	-0.400093	0.413879	-5.42725	0.852236	-29.7705	530.078	140.876	-0.17049	0	-0.817717	0.187096	-3.33133	-0.885348
1.97	-54.693	713.672	-109.411	-0.175853	0	-0.400212	0.415823	-5.42594	0.831836	-30.5619	530.5700000000001	142.497	-0.170472	0	-0.817026	0.17875	-3.10319	-0.833431
1.98	-55.1682	717.46	-107.581	-0.174978	0	-0.400314	0.403643	-5.24936	0.787124	-32.7182	534.856	143.105	-0.170661	0	-0.81631	0.158264	-2.58719	-0.692226
1.99	-55.0123	722.4690000000001	-107.219	-0.174217	0	-0.400318	0.372432	-4.8911	0.725868	-36.199	543.798	144.555	-0.171001	0	-0.815927	0.135796	-2.03999	-0.542279
2	-55.2631	728.65	-107.865	-0.173552	0	-0.400085	0.33917	-4.47199	0.662009	-37.7811	554.275	147.73	-0.171267	0	-0.815927	0.118708	-1.74153	-0.464168
2.01	-56.2514	735.349	-108.228	-0.172908	0	-0.399803	0.31696	-4.14347	0.609834	-34.1713	564.176	150.527	-0.171686	0	-0.815984	0.09182369999999999	-1.51603	-0.404491
2.02	-58.1004	741.8819999999999	-107.027	-0.172211	0	-0.399542	0.310746	-3.96791	0.572428	-28.5285	576.736	151.059	-0.17204	0	-0.816306	0.0614067	-1.24141	-0.325149
2.03	-61.3724	748.121	-104.058	-0.171469	0	-0.399379	0.324431	-3.95477	0.550076	-26.2538	589.526	149.311	-0.17175	0	-0.816906	0.04376	-0.982627	-0.248873
2.04	-66.34780000000001	754.111	-100.434	-0.170682	0	-0.399188	0.353759	-4.02084	0.535504	-28.7476	597.816	144.846	-0.170675	0	-0.817663	0.0370855	-0.7712059999999999	-0.186857
2.05	-71.4406	758.085	-97.5127	-0.16987	0	-0.398896	0.376235	-3.99238	0.513541	-31.3528	596.72	136.636	-0.16915	0	-0.818595	0.032783	-0.623941	-0.142869
2.06	-76.1482	758.548	-95.5001	-0.169011	0	-0.398492	0.385175	-3.83691	0.483061	-30.9859	581.35	123.615	-0.167141	0	-0.8195170000000001	0.0253319	-0.47527	-0.101058
2.07	-80.9556	753.328	-93.4443	-0.168078	0	-0.397997	0.385899	-3.59096	0.44543	-27.4425	545.876	104.327	-0.164889	0	-0.820502	0.009882449999999999	-0.196578	-0.0375697
2.08	-85.84569999999999	739.317	-90.2921	-0.166922	0	-0.397392	0.370805	-3.19344	0.390012	-21.4451	481.328	77.58969999999999	-0.16219	0	-0.821341	-0.00785608	0.176327	0.0284238
2.09	-89.718	712.655	-85.53270000000001	-0.165683	0	-0.396618	0.328827	-2.61196	0.313487	-13.5965	384.763	45.6829	-0.157773	0	-0.822174	-0.0193998	0.54899	0.0651815
2.1	-90.08410000000001	666.534	-78.3147	-0.164162	0	-0.395625	0.240025	-1.77595	0.208666	-1.58594	264.489	14.6436	-0.15109	0	-0.822987	-0.00565672	0.943379	0.0522309
2.11	-83.4699	592.059	-66.6101	-0.16194	0	-0.393956	0.113497	-0.805046	0.0905724	13.0031	139.191	-6.67699	-0.141329	0	-0.821088	0.112689	1.20627	-0.0578647
2.12	-68.67189999999999	482.661	-47.7792	-0.158171	0	-0.391305	0.0112272	-0.07891040000000001	0.00781144	16.4656	40.5021	-9.899979999999999	-0.112253	0	-0.796913	0.470197	1.15659	-0.282708
2.13	-47.6642	344.856	-21.2084	-0.152295	0	-0.388434	0.00507169	-0.0366942	0.00225667	0	0	0	0	0	0	0	0	0
2.14	-19.4634	195.201	5.13518	-0.144541	0	-0.38743	0.0445223	-0.446521	-0.0117467	0	0	0	0	0	0	0	0	0
2.15	3.38238	67.2444	15.8918	-0.132119	0	-0.39415	-0.0287702	-0.571976	-0.135175	0	0	0	0	0	0	0	0	0
2.16	0	0	0	0	0	0	0	0	0	0	0	0	0	0	0	0	0	0
2.17	0	0	0	0	0	0	0	0	0	0	0	0	0	0	0	0	0	0
2.18	0	0	0	0	0	0	0	0	0	0	0	0	0	0	0	0	0	0
2.19	0	0	0	0	0	0	0	0	0	0	0	0	0	0	0	0	0	0
2.2	0	0	0	0	0	0	0	0	0	0	0	0	0	0	0	0	0	0
2.21	0	0	0	0	0	0	0	0	0	0	0	0	0	0	0	0	0	0
2.22	0	0	0	0	0	0	0	0	0	0	0	0	0	0	0	0	0	0
2.23	0	0	0	0	0	0	0	0	0	0	0	0	0	0	0	0	0	0
2.24	0	0	0	0	0	0	0	0	0	0	0	0	0	0	0	0	0	0
2.25	0	0	0	0	0	0	0	0	0	0	0	0	0	0	0	0	0	0
2.26	0	0	0	0	0	0	0	0	0	0	0	0	0	0	0	0	0	0
2.27	0	0	0	0	0	0	0	0	0	0	0	0	0	0	0	0	0	0
2.28	0	0	0	0	0	0	0	0	0	0	0	0	0	0	0	0	0	0
2.29	0	0	0	0	0	0	0	0	0	0	0	0	0	0	0	0	0	0
2.3	0	0	0	0	0	0	0	0	0	0	0	0	0	0	0	0	0	0
2.31	0	0	0	0	0	0	0	0	0	0	0	0	0	0	0	0	0	0
2.32	0	0	0	0	0	0	0	0	0	0	0	0	0	0	0	0	0	0
2.33	0	0	0	0	0	0	0	0	0	0	0	0	0	0	0	0	0	0
2.34	0	0	0	0	0	0	0	0	0	0	0	0	0	0	0	0	0	0
2.35	0	0	0	0	0	0	0	0	0	0	0	0	0	0	0	0	0	0
2.36	0	0	0	0	0	0	0	0	0	0	0	0	0	0	0	0	0	0
2.37	0	0	0	0	0	0	0	0	0	0	0	0	0	0	0	0	0	0
2.38	0	0	0	0	0	0	0	0	0	0	0	0	0	0	0	0	0	0
2.39	0	0	0	0	0	0	0	0	0	0	0	0	0	0	0	0	0	0
2.4	0	0	0	0	0	0	0	0	0	0	0	0	0	0	0	0	0	0
2.41	0	0	0	0	0	0	0	0	0	0	0	0	0	0	0	0	0	0
2.42	0	0	0	0	0	0	0	0	0	0	0	0	0	0	0	0	0	0
2.43	0	0	0	0	0	0	0	0	0	0	0	0	0	0	0	0	0	0
2.44	0	0	0	0	0	0	0	0	0	0	0	0	0	0	0	0	0	0
2.45	0	0	0	0	0	0	0	0	0	0	0	0	0	0	0	0	0	0
2.46	0	0	0	0	0	0	0	0	0	0	0	0	0	0	0	0	0	0
2.47	0	0	0	0	0	0	0	0	0	0	0	0	0	0	0	0	0	0
2.48	0	0	0	0	0	0	0	0	0	0	0	0	0	0	0	0	0	0
2.49	0	0	0	0	0	0	0	0	0	0	0	0	0	0	0	0	0	0
2.5	0	0	0	0	0	0	0	0	0	0	0	0	0	0	0	0	0	0
2.51	0	0	0	0	0	0	0	0	0	0	0	0	0	0	0	0	0	0
2.52	0	0	0	0	0	0	0	0	0	0	0	0	0	0	0	0	0	0
2.53	0	0	0	0	0	0	0	0	0	0	0	0	0	0	0	0	0	0
2.54	0	0	0	0	0	0	0	0	0	0	0	0	0	0	0	0	0	0
2.55	0	0	0	0	0	0	0	0	0	0	0	0	0	0	0	0	0	0
2.56	0	0	0	0	0	0	0	0	0	0	0	0	0	0	0	0	0	0
2.57	0	0	0	0	0	0	0	0	0	0	0	0	0	0	0	0	0	0
2.58	0	0	0	0	0	0	0	0	0	0	0	0	0	0	0	0	0	0
